<?xml version="1.0" standalone="no"?>
<!DOCTYPE svg PUBLIC "-//W3C//DTD SVG 20010904//EN"
 "http://www.w3.org/TR/2001/REC-SVG-20010904/DTD/svg10.dtd">
<svg version="1.0" xmlns="http://www.w3.org/2000/svg"
 width="512.000000pt" height="512.000000pt" viewBox="0 0 512.000000 512.000000"
 preserveAspectRatio="xMidYMid meet">
<metadata>
Created by potrace 1.16, written by Peter Selinger 2001-2019
</metadata>
<g transform="translate(0.000000,512.000000) scale(0.100000,-0.100000)"
fill="#000000" stroke="none">
<path d="M3295 3955 c21 -38 54 -93 72 -122 18 -29 33 -54 33 -57 0 -2 22 -43
50 -90 27 -47 47 -86 44 -86 -3 0 4 -13 15 -29 l21 -29 0 -1505 c0 -1128 3
-1508 12 -1513 7 -5 8 -3 4 5 -5 8 -3 11 5 9 13 -2 30 7 179 92 36 21 269 155
519 299 249 144 466 271 482 284 15 12 40 44 54 71 l25 50 0 1226 0 1227 -23
44 c-13 24 -29 44 -36 44 -7 0 -112 -182 -234 -405 -123 -223 -254 -460 -292
-527 -65 -114 -71 -122 -86 -105 -9 9 -206 276 -439 592 -233 316 -428 580
-433 585 -6 6 7 -21 28 -60z"/>
<path d="M386 3900 c-19 -17 -44 -50 -55 -74 -21 -41 -21 -56 -21 -642 0 -329
3 -623 7 -653 l6 -54 289 -141 c211 -103 287 -144 283 -155 -3 -7 -125 -220
-271 -472 -290 -500 -278 -471 -210 -516 35 -24 1547 -894 1616 -930 46 -24
65 -35 110 -64 14 -9 52 -31 85 -49 33 -18 74 -41 90 -51 17 -10 47 -26 68
-35 20 -9 37 -20 37 -24 0 -13 90 -40 132 -40 21 0 38 2 38 6 0 4 -670 1225
-1247 2274 -102 184 -347 631 -546 993 -198 361 -364 657 -368 657 -5 0 -24
-14 -43 -30z"/>
</g>
</svg>
